<svg xmlns="http://www.w3.org/2000/svg" width="37.5" viewBox="0 0 37.5 37.5" height="37.5" version="1.0">
    <defs>
        <clipPath id="a">
            <path d="M 0 0 L 37.007812 0 L 37.007812 37.007812 L 0 37.007812 Z M 0 0" />
        </clipPath>
        <clipPath id="b">
            <path d="M 9 2.539062 L 26 2.539062 L 26 25 L 9 25 Z M 9 2.539062" />
        </clipPath>
        <clipPath id="c">
            <path d="M 9 2.539062 L 26 2.539062 L 26 10 L 9 10 Z M 9 2.539062" />
        </clipPath>
        <clipPath id="d">
            <path d="M 17 31 L 23 31 L 23 35.539062 L 17 35.539062 Z M 17 31" />
        </clipPath>
        <clipPath id="e">
            <path d="M 22 31 L 27 31 L 27 35.539062 L 22 35.539062 Z M 22 31" />
        </clipPath>
        <clipPath id="f">
            <path d="M 2.355469 11 L 8 11 L 8 17 L 2.355469 17 Z M 2.355469 11" />
        </clipPath>
        <clipPath id="g">
            <path d="M 2.355469 20 L 8 20 L 8 26 L 2.355469 26 Z M 2.355469 20" />
        </clipPath>
        <clipPath id="h">
            <path d="M 26 2.539062 L 31 2.539062 L 31 7 L 26 7 Z M 26 2.539062" />
        </clipPath>
        <clipPath id="i">
            <path d="M 2.355469 5 L 9 5 L 9 8 L 2.355469 8 Z M 2.355469 5" />
        </clipPath>
        <clipPath id="j">
            <path d="M 28 8 L 36.105469 8 L 36.105469 14 L 28 14 Z M 28 8" />
        </clipPath>
    </defs>
<!--    bg-->
    <g clip-path="url(#a)" fill="#7E7E7">
        <path d="M 0 0 L 37.5 0 L 37.5 45 L 0 45 Z M 0 0" />
        <path d="M 0 0 L 37.5 0 L 37.5 37.5 L 0 37.5 Z M 0 0" />
        <path d="M 0 0 L 37.5 0 L 37.5 37.5 L 0 37.5 Z M 0 0" />
    </g>

    <g clip-path="url(#b)">
        <path fill="#4C5F7C" d="M 25.382812 24.980469 L 9.199219 24.980469 L 9.199219 2.578125 L 25.382812 2.578125 L 25.382812 24.980469" />
    </g>
    <g clip-path="url(#c)">
        <path fill="#2D3F5D" d="M 25.382812 9.617188 L 9.199219 9.617188 L 9.199219 2.578125 L 25.382812 2.578125 L 25.382812 9.617188" />
    </g>
    <path fill="#C8DDE4" d="M 24.410156 8.019531 L 10.171875 8.019531 L 10.171875 4.175781 L 24.410156 4.175781 L 24.410156 8.019531" />
    <path fill="#FFF" d="M 13.40625 23.542969 L 11.464844 23.542969 L 11.464844 21.941406 L 13.40625 21.941406 L 13.40625 23.542969" />
    <path fill="#FFF" d="M 16.644531 23.542969 L 14.703125 23.542969 L 14.703125 21.941406 L 16.644531 21.941406 L 16.644531 23.542969" />
    <path fill="#FFF" d="M 19.878906 23.542969 L 17.9375 23.542969 L 17.9375 21.941406 L 19.878906 21.941406 L 19.878906 23.542969" />
    <path fill="#FFF" d="M 13.40625 20.980469 L 11.464844 20.980469 L 11.464844 19.382812 L 13.40625 19.382812 L 13.40625 20.980469" />
    <path fill="#FFF" d="M 16.644531 20.980469 L 14.703125 20.980469 L 14.703125 19.382812 L 16.644531 19.382812 L 16.644531 20.980469" />
    <path fill="#FFF" d="M 19.878906 20.980469 L 17.9375 20.980469 L 17.9375 19.382812 L 19.878906 19.382812 L 19.878906 20.980469" />
    <path fill="#2D3F5D" d="M 23.117188 23.542969 L 21.175781 23.542969 L 21.175781 19.382812 L 23.117188 19.382812 L 23.117188 23.542969" />
    <path fill="#FFF" d="M 13.40625 18.421875 L 11.464844 18.421875 L 11.464844 16.820312 L 13.40625 16.820312 L 13.40625 18.421875" />
    <path fill="#FFF" d="M 16.644531 18.421875 L 14.703125 18.421875 L 14.703125 16.820312 L 16.644531 16.820312 L 16.644531 18.421875" />
    <path fill="#FFF" d="M 19.878906 18.421875 L 17.9375 18.421875 L 17.9375 16.820312 L 19.878906 16.820312 L 19.878906 18.421875" />
    <path fill="#FFF" d="M 23.117188 18.421875 L 21.175781 18.421875 L 21.175781 16.820312 L 23.117188 16.820312 L 23.117188 18.421875" />
    <path fill="#FFF" d="M 13.40625 15.859375 L 11.464844 15.859375 L 11.464844 14.257812 L 13.40625 14.257812 L 13.40625 15.859375" />
    <path fill="#FFF" d="M 16.644531 15.859375 L 14.703125 15.859375 L 14.703125 14.257812 L 16.644531 14.257812 L 16.644531 15.859375" />
    <path fill="#FFF" d="M 19.878906 15.859375 L 17.9375 15.859375 L 17.9375 14.257812 L 19.878906 14.257812 L 19.878906 15.859375" />
    <path fill="#FFF" d="M 23.117188 15.859375 L 21.175781 15.859375 L 21.175781 14.257812 L 23.117188 14.257812 L 23.117188 15.859375" />
    <path fill="#F5BE12" d="M 16.644531 13.300781 L 11.464844 13.300781 L 11.464844 11.699219 L 16.644531 11.699219 L 16.644531 13.300781" />
    <path fill="#F4704F" d="M 23.117188 13.300781 L 17.9375 13.300781 L 17.9375 11.699219 L 23.117188 11.699219 L 23.117188 13.300781" />
    <path fill="#100F0D" d="M 19.347656 7.445312 L 18.984375 7.445312 L 18.984375 5.335938 L 18.542969 5.335938 L 18.542969 4.984375 L 19.347656 4.984375 L 19.347656 7.445312" />
    <path fill="#100F0D"
        d="M 21.683594 5.519531 C 21.683594 5.5625 21.683594 5.632812 21.683594 5.726562 C 21.679688 5.816406 21.679688 5.882812 21.679688 5.929688 C 21.679688 6.070312 21.628906 6.191406 21.523438 6.296875 C 21.433594 6.386719 21.28125 6.429688 21.070312 6.429688 C 21.035156 6.429688 20.988281 6.429688 20.929688 6.429688 C 20.867188 6.429688 20.824219 6.429688 20.792969 6.429688 C 20.675781 6.429688 20.589844 6.445312 20.539062 6.472656 C 20.46875 6.511719 20.433594 6.582031 20.433594 6.683594 L 20.433594 7.089844 L 21.683594 7.089844 L 21.683594 7.445312 L 20.070312 7.445312 L 20.070312 6.597656 C 20.070312 6.433594 20.121094 6.304688 20.21875 6.207031 C 20.320312 6.113281 20.453125 6.0625 20.617188 6.0625 L 21.003906 6.0625 C 21.21875 6.0625 21.328125 5.980469 21.328125 5.808594 L 21.328125 5.597656 C 21.328125 5.421875 21.226562 5.335938 21.019531 5.335938 L 20.070312 5.335938 L 20.070312 4.984375 L 21.109375 4.984375 C 21.285156 4.984375 21.425781 5.027344 21.527344 5.117188 C 21.628906 5.210938 21.683594 5.347656 21.683594 5.519531" />
    <path fill="#100F0D"
        d="M 23.824219 6.9375 C 23.824219 7.089844 23.773438 7.210938 23.671875 7.304688 C 23.605469 7.363281 23.542969 7.402344 23.480469 7.421875 C 23.429688 7.4375 23.355469 7.445312 23.257812 7.445312 L 22.210938 7.445312 L 22.210938 7.089844 L 23.179688 7.089844 C 23.324219 7.089844 23.414062 7.042969 23.449219 6.953125 C 23.464844 6.914062 23.46875 6.804688 23.46875 6.617188 C 23.46875 6.460938 23.378906 6.382812 23.191406 6.382812 L 22.746094 6.382812 L 22.746094 6.027344 L 23.191406 6.027344 C 23.378906 6.027344 23.46875 5.945312 23.46875 5.785156 L 23.46875 5.578125 C 23.46875 5.476562 23.445312 5.410156 23.390625 5.378906 C 23.351562 5.351562 23.28125 5.335938 23.179688 5.335938 L 22.210938 5.335938 L 22.210938 4.984375 L 23.257812 4.984375 C 23.441406 4.984375 23.578125 5.023438 23.671875 5.101562 C 23.773438 5.1875 23.824219 5.308594 23.824219 5.464844 L 23.824219 5.796875 C 23.824219 5.976562 23.734375 6.113281 23.554688 6.199219 C 23.585938 6.214844 23.628906 6.242188 23.683594 6.277344 C 23.777344 6.355469 23.824219 6.464844 23.824219 6.601562 L 23.824219 6.9375" />
    <path fill="#FACE98"
        d="M 29.425781 6.332031 L 28.144531 6.332031 L 28.144531 5.066406 L 26.863281 5.066406 L 26.863281 3.800781 L 28.144531 3.800781 L 28.144531 2.535156 L 29.425781 2.535156 L 29.425781 3.800781 L 30.707031 3.800781 L 30.707031 5.066406 L 29.425781 5.066406 L 29.425781 6.332031" />
    <path fill="#FFF"
        d="M 25.480469 33.347656 C 25.246094 33.34375 25.046875 33.53125 25.042969 33.765625 C 25.039062 34 25.230469 34.195312 25.46875 34.199219 C 25.703125 34.203125 25.902344 34.015625 25.902344 33.78125 C 25.90625 33.546875 25.71875 33.351562 25.480469 33.347656" />
    <path fill="#F8F0E1"
        d="M 19.636719 15.28125 L 18.164062 15.28125 C 18.050781 15.066406 18.054688 14.957031 18.085938 14.761719 C 18.117188 14.570312 18.199219 14.398438 18.320312 14.273438 C 18.503906 14.085938 18.769531 13.996094 19.0625 14.019531 C 19.503906 14.054688 19.773438 14.390625 19.785156 14.917969 C 19.785156 15.042969 19.785156 15.160156 19.636719 15.28125" />
    <g clip-path="url(#f)">
        <path fill="#EDF5F9"
            d="M 5.929688 16.886719 L 4.160156 16.886719 L 4.160156 15.136719 L 2.386719 15.136719 L 2.386719 13.382812 L 4.160156 13.382812 L 4.160156 11.632812 L 5.929688 11.632812 L 5.929688 13.382812 L 7.703125 13.382812 L 7.703125 15.136719 L 5.929688 15.136719 L 5.929688 16.886719" />
    </g>
    <g clip-path="url(#g)">
        <path fill="#416E8D"
            d="M 6.417969 25.328125 L 5.164062 24.089844 L 3.910156 25.328125 L 2.660156 24.089844 L 3.910156 22.851562 L 2.65625 21.613281 L 3.910156 20.375 L 5.164062 21.613281 L 6.417969 20.375 L 7.667969 21.613281 L 6.417969 22.851562 L 7.667969 24.089844 L 6.417969 25.328125" />
    </g>
    <g clip-path="url(#h)">
        <path fill="#416E8D"
            d="M 29.425781 6.332031 L 28.144531 6.332031 L 28.144531 5.066406 L 26.863281 5.066406 L 26.863281 3.800781 L 28.144531 3.800781 L 28.144531 2.535156 L 29.425781 2.535156 L 29.425781 3.800781 L 30.707031 3.800781 L 30.707031 5.066406 L 29.425781 5.066406 L 29.425781 6.332031" />
    </g>
    <path fill="#EDF5F9" d="M 27.082031 18.640625 L 32.855469 18.640625 L 32.855469 16.742188 L 27.082031 16.742188 Z M 27.082031 18.640625" />
    <g clip-path="url(#i)">
        <path fill="#416E8D" d="M 2.597656 7.746094 L 8.371094 7.746094 L 8.371094 5.847656 L 2.597656 5.847656 Z M 2.597656 7.746094" />
    </g>
    <path fill="#EDF5F9"
        d="M 33.3125 31.652344 L 28.292969 31.652344 L 28.292969 30.46875 L 33.3125 30.46875 L 33.3125 31.652344 M 33.3125 29.191406 L 28.292969 29.191406 L 28.292969 27.988281 L 33.3125 27.988281 L 33.3125 29.191406" />
    <g clip-path="url(#j)">
        <path fill="#EDF5F9"
            d="M 34.566406 13.988281 C 34.066406 13.988281 33.6875 13.847656 33.429688 13.574219 C 33.171875 13.296875 33.046875 12.875 33.046875 12.3125 C 33.046875 11.75 33.175781 11.328125 33.4375 11.050781 C 33.699219 10.773438 34.074219 10.636719 34.566406 10.636719 C 35.070312 10.636719 35.445312 10.773438 35.695312 11.050781 C 35.945312 11.328125 36.070312 11.746094 36.070312 12.300781 C 36.070312 12.871094 35.941406 13.292969 35.6875 13.570312 C 35.429688 13.847656 35.054688 13.988281 34.566406 13.988281 M 34.566406 11.371094 C 34.457031 11.371094 34.367188 11.390625 34.304688 11.429688 C 34.242188 11.472656 34.191406 11.53125 34.152344 11.617188 C 34.117188 11.6875 34.09375 11.789062 34.078125 11.914062 C 34.066406 12.042969 34.058594 12.175781 34.058594 12.3125 C 34.058594 12.484375 34.0625 12.617188 34.070312 12.71875 C 34.082031 12.820312 34.105469 12.914062 34.148438 13.007812 C 34.183594 13.085938 34.234375 13.148438 34.304688 13.191406 C 34.371094 13.234375 34.460938 13.253906 34.566406 13.253906 C 34.671875 13.253906 34.757812 13.234375 34.824219 13.191406 C 34.894531 13.152344 34.945312 13.089844 34.984375 13.007812 C 35.015625 12.933594 35.039062 12.839844 35.054688 12.722656 C 35.070312 12.609375 35.078125 12.46875 35.078125 12.308594 C 35.078125 12.164062 35.070312 12.03125 35.058594 11.914062 C 35.046875 11.792969 35.019531 11.691406 34.984375 11.613281 C 34.945312 11.53125 34.894531 11.472656 34.824219 11.429688 C 34.757812 11.390625 34.671875 11.371094 34.566406 11.371094 M 31.261719 13.878906 L 30.339844 13.878906 L 33.0625 8.742188 L 33.984375 8.742188 L 31.261719 13.878906 M 29.777344 11.992188 C 29.277344 11.992188 28.898438 11.855469 28.640625 11.578125 C 28.382812 11.300781 28.257812 10.882812 28.257812 10.316406 C 28.257812 9.753906 28.386719 9.332031 28.648438 9.054688 C 28.910156 8.777344 29.285156 8.640625 29.777344 8.640625 C 30.28125 8.640625 30.65625 8.777344 30.90625 9.054688 C 31.15625 9.332031 31.28125 9.75 31.28125 10.304688 C 31.28125 10.875 31.152344 11.296875 30.898438 11.574219 C 30.640625 11.851562 30.265625 11.992188 29.777344 11.992188 M 29.777344 9.375 C 29.667969 9.375 29.578125 9.394531 29.515625 9.4375 C 29.453125 9.476562 29.402344 9.539062 29.363281 9.621094 C 29.328125 9.695312 29.304688 9.792969 29.289062 9.921875 C 29.277344 10.046875 29.269531 10.179688 29.269531 10.316406 C 29.269531 10.488281 29.273438 10.625 29.28125 10.722656 C 29.292969 10.824219 29.316406 10.917969 29.359375 11.011719 C 29.394531 11.09375 29.445312 11.152344 29.515625 11.195312 C 29.582031 11.238281 29.671875 11.261719 29.777344 11.261719 C 29.882812 11.261719 29.96875 11.238281 30.035156 11.199219 C 30.105469 11.15625 30.15625 11.09375 30.195312 11.011719 C 30.226562 10.9375 30.25 10.84375 30.265625 10.730469 C 30.28125 10.613281 30.289062 10.476562 30.289062 10.3125 C 30.289062 10.167969 30.28125 10.039062 30.269531 9.917969 C 30.257812 9.796875 30.230469 9.699219 30.195312 9.617188 C 30.15625 9.535156 30.105469 9.476562 30.035156 9.4375 C 29.96875 9.394531 29.882812 9.375 29.777344 9.375" />
    </g>
    <path fill="#416E8D"
        d="M 14.617188 32.367188 C 14.121094 32.367188 13.75 32.234375 13.496094 31.960938 C 13.246094 31.691406 13.121094 31.277344 13.121094 30.722656 C 13.121094 30.167969 13.246094 29.753906 13.503906 29.480469 C 13.761719 29.207031 14.132812 29.074219 14.617188 29.074219 C 15.109375 29.074219 15.480469 29.207031 15.726562 29.480469 C 15.972656 29.753906 16.097656 30.164062 16.097656 30.707031 C 16.097656 31.269531 15.96875 31.6875 15.714844 31.960938 C 15.464844 32.234375 15.097656 32.367188 14.617188 32.367188 M 14.617188 29.796875 C 14.507812 29.796875 14.421875 29.816406 14.359375 29.855469 C 14.296875 29.894531 14.246094 29.957031 14.207031 30.035156 C 14.171875 30.109375 14.148438 30.207031 14.136719 30.332031 C 14.121094 30.457031 14.113281 30.585938 14.113281 30.722656 C 14.113281 30.890625 14.121094 31.023438 14.128906 31.121094 C 14.136719 31.21875 14.164062 31.316406 14.203125 31.40625 C 14.238281 31.484375 14.289062 31.542969 14.355469 31.585938 C 14.425781 31.628906 14.511719 31.648438 14.617188 31.648438 C 14.71875 31.648438 14.804688 31.628906 14.871094 31.589844 C 14.9375 31.546875 14.988281 31.488281 15.023438 31.40625 C 15.058594 31.332031 15.082031 31.238281 15.09375 31.125 C 15.109375 31.011719 15.117188 30.878906 15.117188 30.71875 C 15.117188 30.578125 15.109375 30.445312 15.097656 30.328125 C 15.085938 30.210938 15.0625 30.113281 15.023438 30.03125 C 14.988281 29.953125 14.9375 29.894531 14.871094 29.855469 C 14.804688 29.816406 14.71875 29.796875 14.617188 29.796875 M 11.363281 32.265625 L 10.457031 32.265625 L 13.136719 27.207031 L 14.042969 27.207031 L 11.363281 32.265625 M 9.90625 30.40625 C 9.410156 30.40625 9.039062 30.269531 8.785156 30 C 8.535156 29.726562 8.410156 29.316406 8.410156 28.761719 C 8.410156 28.207031 8.535156 27.792969 8.792969 27.519531 C 9.050781 27.246094 9.421875 27.109375 9.90625 27.109375 C 10.398438 27.109375 10.769531 27.246094 11.015625 27.519531 C 11.261719 27.792969 11.386719 28.199219 11.386719 28.746094 C 11.386719 29.308594 11.257812 29.726562 11.003906 29.996094 C 10.753906 30.269531 10.386719 30.40625 9.90625 30.40625 M 9.90625 27.832031 C 9.796875 27.832031 9.710938 27.851562 9.648438 27.890625 C 9.585938 27.933594 9.535156 27.992188 9.496094 28.074219 C 9.460938 28.148438 9.4375 28.246094 9.425781 28.371094 C 9.410156 28.492188 9.402344 28.625 9.402344 28.761719 C 9.402344 28.925781 9.410156 29.058594 9.417969 29.160156 C 9.425781 29.257812 9.453125 29.351562 9.492188 29.441406 C 9.527344 29.523438 9.578125 29.582031 9.644531 29.625 C 9.714844 29.667969 9.800781 29.6875 9.90625 29.6875 C 10.007812 29.6875 10.09375 29.667969 10.160156 29.625 C 10.226562 29.585938 10.277344 29.523438 10.3125 29.441406 C 10.347656 29.371094 10.371094 29.277344 10.382812 29.164062 C 10.398438 29.050781 10.40625 28.914062 10.40625 28.757812 C 10.40625 28.613281 10.402344 28.484375 10.386719 28.367188 C 10.375 28.25 10.351562 28.148438 10.3125 28.070312 C 10.277344 27.992188 10.226562 27.933594 10.160156 27.890625 C 10.09375 27.851562 10.007812 27.832031 9.90625 27.832031" />
</svg>